<svg width="142" height="165" viewBox="0 0 142 165" fill="none" xmlns="http://www.w3.org/2000/svg">
<path d="M23.027 28.7838H1.91895V103.622H23.027V28.7838Z" fill="white"/>
<path d="M122.31 45.6281C127.915 42.4318 132.549 34.7468 132.549 27.2148C132.549 7.33328 117.332 0.114769 100.188 0.114769H51.1262V19.3616H98.0772C106.42 19.3616 110.312 23.5061 110.312 29.7764C110.312 36.0468 106.489 39.8701 98.6048 39.8701H51.1262V103.988H101.755C124.695 103.988 142 93.8943 142 71.9176C142 58.3064 133.512 48.358 122.294 45.6281M100.639 84.7488H73.577V57.9852H101.946C111.887 57.9852 118.624 62.1527 118.624 71.6194C118.624 80.9101 111.405 84.7641 100.654 84.7641" fill="white"/>
<path d="M31.3054 6.94329C30.8504 6.92605 30.3969 7.00575 29.975 7.17714C29.5532 7.34852 29.1725 7.60766 28.8585 7.93736C28.2509 8.67937 27.9189 9.60882 27.9189 10.5678C27.9189 11.5268 28.2509 12.4563 28.8585 13.1983C29.5136 13.8355 30.3915 14.1919 31.3054 14.1919C32.2193 14.1919 33.0972 13.8355 33.7524 13.1983C34.3565 12.4533 34.6861 11.5232 34.6861 10.564C34.6861 9.60482 34.3565 8.67476 33.7524 7.9297C33.4373 7.60178 33.0564 7.34434 32.6346 7.17432C32.2128 7.00429 31.7598 6.92556 31.3054 6.94329Z" fill="white"/>
<path d="M21.3036 7.20336C21.1287 7.04963 20.9252 6.93197 20.7048 6.85717C20.4843 6.78236 20.2512 6.75189 20.0189 6.76749H18.2449V10.0021H20.0877C20.32 10.0177 20.5531 9.98716 20.7736 9.91236C20.994 9.83756 21.1976 9.71992 21.3724 9.56619C21.5225 9.41039 21.6393 9.2256 21.7155 9.02312C21.7918 8.82064 21.8259 8.60472 21.8159 8.38859C21.8257 8.17134 21.7914 7.95436 21.7152 7.75068C21.639 7.547 21.5224 7.36083 21.3724 7.20336" fill="white"/>
<path d="M40.6806 0H2.50812C1.84292 0 1.20499 0.264251 0.734628 0.734616C0.264263 1.20498 1.16623e-05 1.84293 1.16623e-05 2.50813V18.6198C-0.000994486 18.9498 0.0631117 19.2768 0.188706 19.582C0.314301 19.8871 0.49892 20.1645 0.731921 20.3983C0.964923 20.632 1.24173 20.8174 1.54653 20.9439C1.85133 21.0704 2.1781 21.1356 2.50812 21.1356H33.8138C33.9355 21.1356 34.0522 21.1839 34.1383 21.2699C34.2243 21.356 34.2727 21.4727 34.2727 21.5944V25.6395C34.2719 25.7639 34.3086 25.8857 34.3781 25.989C34.4475 26.0923 34.5465 26.1722 34.662 26.2184C34.7776 26.2646 34.9043 26.275 35.0258 26.2481C35.1473 26.2212 35.2579 26.1584 35.3432 26.0677L38.2795 23.009C38.3386 22.9494 38.4088 22.902 38.4863 22.8697C38.5637 22.8374 38.6468 22.8207 38.7307 22.8207C38.8146 22.8207 38.8977 22.8374 38.9751 22.8697C39.0526 22.902 39.1228 22.9494 39.1819 23.009L42.1106 26.0677C42.1969 26.1572 42.3079 26.219 42.4295 26.2452C42.551 26.2715 42.6776 26.2609 42.7932 26.215C42.9088 26.1691 43.0081 26.0899 43.0785 25.9874C43.1489 25.8849 43.1873 25.7638 43.1887 25.6395V2.50813C43.1887 1.84293 42.9245 1.20498 42.4541 0.734616C41.9838 0.264251 41.3458 0 40.6806 0ZM13.4506 10.5754C13.1166 10.9592 12.6864 11.2469 12.2042 11.4089C11.5908 11.6262 10.943 11.7299 10.2925 11.7148H8.4573V16.127H6.21681V5.0545H10.2925C11.3658 4.98545 12.4248 5.33023 13.2518 6.01797C13.5832 6.30031 13.8483 6.65229 14.028 7.04882C14.2078 7.44535 14.2978 7.87666 14.2918 8.31199C14.2986 9.15333 13.9997 9.96853 13.4506 10.606M21.5867 16.1575L18.9409 11.7454H18.1763V16.1575H15.9511V5.0545H20.0268C21.1001 4.98545 22.1591 5.33023 22.9861 6.01797C23.3188 6.31539 23.5833 6.68119 23.7614 7.09033C23.9396 7.49947 24.0273 7.9423 24.0184 8.38846C24.0195 9.08939 23.7972 9.77243 23.3837 10.3384C22.8961 10.9857 22.1843 11.4275 21.3879 11.5772L24.2095 16.127L21.5867 16.1575ZM35.3508 14.6664C34.2614 15.6923 32.8213 16.2636 31.3248 16.2636C29.8283 16.2636 28.3883 15.6923 27.2989 14.6664C26.2466 13.5736 25.6587 12.1155 25.6587 10.5984C25.6587 9.08127 26.2466 7.62317 27.2989 6.53031C28.3844 5.49976 29.8242 4.92522 31.321 4.92522C32.8178 4.92522 34.2576 5.49976 35.3432 6.53031C36.3937 7.62408 36.9804 9.08183 36.9804 10.5984C36.9804 12.1149 36.3937 13.5727 35.3432 14.6664" fill="white"/>
<path d="M10.2925 6.7674H8.45728V10.002H10.2925C10.5249 10.0189 10.7583 9.98898 10.979 9.91411C11.1996 9.83925 11.403 9.72091 11.5772 9.5661C11.7304 9.41251 11.8491 9.22807 11.9256 9.02504C12.0021 8.822 12.0345 8.60501 12.0206 8.3885C12.0322 8.17106 11.9988 7.95357 11.9225 7.74963C11.8462 7.54569 11.7286 7.3597 11.5772 7.20327C11.403 7.04846 11.1996 6.93012 10.979 6.85526C10.7583 6.78039 10.5249 6.75052 10.2925 6.7674Z" fill="white"/>
<path d="M11 127.988H3V164.988H11V127.988Z" fill="white"/>
<path d="M43 154.306C43 161.073 38.4478 164.988 31.3132 164.988H16V127.988H31.2088C37.5986 127.988 41.8028 131.264 41.8028 137.645C41.8028 141.359 40.3202 143.587 37.4942 145.073C41.2111 146.395 42.993 149.99 42.993 154.321M30.2691 135.186H23.1137V142.614H30.4918C33.4153 142.614 34.6682 141.344 34.6682 138.855C34.6682 136.159 33.2274 135.141 30.2622 135.141M35.8306 153.645C35.8306 150.949 34.7935 149.522 31.1253 149.522H23.1137V157.768H31.1879C34.8004 157.768 35.8376 156.126 35.8376 153.645" fill="white"/>
<path d="M75.9966 149.52C75.991 152.583 75.1365 155.576 73.5409 158.12C71.9453 160.664 69.6803 162.646 67.0318 163.815C64.3834 164.984 61.4702 165.288 58.6603 164.688C55.8503 164.088 53.2696 162.612 51.244 160.446C49.2183 158.279 47.8386 155.52 47.2791 152.516C46.7196 149.512 47.0053 146.398 48.1002 143.567C49.1951 140.737 51.0501 138.317 53.4309 136.612C55.8117 134.908 58.6116 133.996 61.477 133.991C63.3955 133.948 65.3024 134.32 67.0829 135.085C68.8634 135.85 70.4807 136.992 71.8372 138.443C73.1938 139.894 74.2616 141.623 74.9765 143.527C75.6913 145.431 76.0383 147.469 75.9966 149.52ZM54.2954 149.52C54.2954 154.438 57.4311 157.683 61.477 157.683C65.5228 157.683 68.6515 154.438 68.6515 149.52C68.6515 144.602 65.5228 141.357 61.477 141.357C57.4311 141.357 54.2954 144.655 54.2954 149.528" fill="white"/>
<path d="M108 149.52C107.994 152.582 107.111 155.574 105.461 158.117C103.811 160.661 101.469 162.643 98.73 163.813C95.9912 164.982 92.9784 165.287 90.0718 164.69C87.1653 164.092 84.4952 162.618 82.3986 160.454C80.302 158.29 78.8728 155.532 78.2915 152.53C77.7101 149.527 78.0026 146.414 79.132 143.583C80.2614 140.752 82.1771 138.33 84.6374 136.623C87.0977 134.916 89.9923 134 92.9558 133.991C94.9408 133.948 96.9137 134.32 98.7558 135.085C100.598 135.85 102.271 136.992 103.675 138.443C105.078 139.894 106.183 141.623 106.922 143.527C107.662 145.431 108.021 147.469 107.978 149.52M85.5184 149.52C85.5184 154.438 88.77 157.683 92.9558 157.683C97.1417 157.683 100.386 154.438 100.386 149.52C100.386 144.602 97.1638 141.357 92.9558 141.357C88.7479 141.357 85.5184 144.655 85.5184 149.528" fill="white"/>
<path d="M129.37 164.988L117.529 152.214V164.988H110V123.988H117.529V147.896L128.527 135.706H138.105L124.896 149.655L139 164.988H129.37Z" fill="white"/>
</svg>
